<svg width="17" height="20" viewBox="0 0 17 20" fill="none" xmlns="http://www.w3.org/2000/svg">
<path d="M15.5752 7.0792C14.9682 7.45065 14.4654 7.97003 14.1139 8.58874C13.7624 9.20745 13.5736 9.90525 13.5652 10.6168C13.5676 11.4176 13.8049 12.2001 14.2476 12.8674C14.6903 13.5347 15.3191 14.0575 16.056 14.371C15.7655 15.3084 15.3355 16.1967 14.7805 17.0061C13.9864 18.1492 13.1561 19.2923 11.8927 19.2923C10.6293 19.2923 10.3044 18.5583 8.8484 18.5583C7.4284 18.5583 6.9232 19.3164 5.7684 19.3164C4.6136 19.3164 3.8073 18.2575 2.8808 16.958C1.65683 15.1375 0.984157 13.0026 0.943497 10.8093C0.943497 7.1993 3.2899 5.2863 5.6001 5.2863C6.8275 5.2863 7.8501 6.0925 8.6201 6.0925C9.3541 6.0925 10.4972 5.2382 11.893 5.2382C12.6107 5.21962 13.3219 5.37783 13.964 5.69887C14.6061 6.01991 15.1594 6.49394 15.5752 7.0792ZM8.7166 5.0336C8.63181 5.03334 8.54722 5.02531 8.4639 5.0096C8.44037 4.8988 8.42827 4.78587 8.4278 4.6726C8.46796 3.74134 8.82937 2.85273 9.4506 2.1578C10.1478 1.35691 11.1251 0.853193 12.182 0.75C12.2071 0.872718 12.2192 0.997743 12.2181 1.123C12.1951 2.07288 11.8468 2.9861 11.2314 3.71C10.9238 4.08955 10.5423 4.40261 10.11 4.63014C9.67766 4.85768 9.2036 4.99495 8.7166 5.0336Z" fill="white"/>
</svg>
